<svg width="150" height="50" viewBox="0 0 150 50" fill="none" xmlns="http://www.w3.org/2000/svg">
<path d="M83.2018 9.89752C76.855 9.89752 73.6893 12.0882 71.1567 13.8533L71.0795 13.9006C70.8015 14.0897 70.7243 14.4679 70.8942 14.7516L73.5194 19.3378C73.6429 19.6215 73.9672 19.7476 74.2452 19.6372C74.3379 19.6057 74.4151 19.5742 74.4923 19.5112L74.693 19.3536C76.0056 18.2346 77.9823 16.5483 83.0474 16.1385C85.8734 15.9021 88.3133 16.6744 90.0892 18.3607C92.0658 20.2204 93.2549 23.2148 93.2549 26.3668C93.2549 32.1665 89.8884 35.8228 84.4681 35.9016C80.0052 35.8859 77.0094 33.5219 77.0094 30.0231C77.0094 28.1792 77.7198 26.8081 79.3412 25.6103C79.6037 25.4527 79.6964 25.106 79.542 24.8223C79.542 24.8066 79.5265 24.8066 79.5265 24.7908L77.2719 20.4568C77.1638 20.2046 76.8859 20.0628 76.6233 20.1258C76.5307 20.1416 76.4535 20.1573 76.3763 20.2046C73.8437 21.7333 70.8633 24.6647 71.0332 30.0389C71.2339 36.863 76.8241 42.0638 84.0666 42.2845H84.9005C93.5174 42.0008 99.7407 35.4919 99.7407 26.6978C99.7253 18.534 93.9343 9.89752 83.2018 9.89752ZM117.7 33.2224C113.793 33.2224 110.674 29.9128 110.674 25.8782C110.674 21.8437 113.778 18.5656 117.7 18.5656C121.623 18.5656 124.742 21.8437 124.742 25.8782C124.742 29.9128 121.623 33.2224 117.7 33.2224ZM110.242 15.4766V11.6942C110.257 11.5681 110.164 11.442 110.041 11.4105C110.01 11.4105 109.994 11.4105 109.964 11.4105H103.617C103.478 11.3947 103.37 11.4893 103.339 11.6154C103.339 11.6469 103.339 11.6626 103.339 11.6942V48.7304C103.323 48.8407 103.401 48.951 103.509 48.9825C103.54 48.9983 103.57 48.9983 103.617 48.9983H110.427C110.566 49.014 110.689 48.9195 110.705 48.7934C110.705 48.7776 110.705 48.7461 110.705 48.7304V36.5636H110.813C111.894 38.2341 114.843 40.2514 118.704 40.2514C125.962 40.2514 132 34.1365 132 25.8625C132 17.9352 125.993 11.505 118.349 11.505C114.952 11.505 112.095 13.4278 110.257 15.7287L110.242 15.4766ZM32.4733 23.4669C32.4733 23.4669 29.1841 22.6789 27.9641 22.3637C26.7442 22.0485 24.6286 21.3551 24.6286 19.7476C24.6286 18.077 26.3272 17.6042 28.0722 17.6042C29.8172 17.6042 31.7321 18.0297 31.8865 19.984C31.8865 20.1258 31.9946 20.2361 32.1336 20.2361C32.1491 20.2361 32.1491 20.2361 32.1645 20.2361L38.5422 20.2204C38.6812 20.2361 38.8048 20.1416 38.8202 20.0155C38.8202 19.984 38.8202 19.9524 38.8202 19.9367C38.4187 13.6799 33.0293 11.442 28.0414 11.442C22.1269 11.442 17.8184 15.3978 17.8184 19.7791C17.8184 22.9626 18.7141 25.957 25.6787 28.0374C26.8986 28.3999 28.5664 28.8727 30.018 29.2667C31.763 29.7552 32.6895 30.4959 32.6895 31.6937C32.6895 33.0648 30.7129 34.0104 28.8289 34.0104C26.0493 34.0104 24.0881 32.9703 23.9182 31.0948C23.9182 30.953 23.8101 30.8427 23.6711 30.8427C23.6557 30.8427 23.6557 30.8427 23.6403 30.8427L17.278 30.8742C17.139 30.8584 17.0154 30.9372 17 31.0791C17 31.1106 17 31.1421 17 31.1736C17.2934 37.0837 22.899 40.2672 28.134 40.2672C35.917 40.2672 39.4533 35.7913 39.4533 31.6307C39.4688 29.6449 39.0364 25.169 32.4733 23.4669ZM42.8816 2.28539V39.9678C42.8661 40.1096 42.9588 40.2357 43.0823 40.2514C43.1132 40.2514 43.1286 40.2514 43.1595 40.2514H49.9697C50.1086 40.2672 50.2322 40.1726 50.2476 40.0466C50.2476 40.015 50.2476 39.9993 50.2476 39.9678V23.8925C50.2476 20.7877 52.286 18.5656 55.5753 18.5656C59.1734 18.5656 60.069 21.56 60.069 24.6174V39.952C60.0536 40.0938 60.1462 40.2199 60.2698 40.2357C60.3007 40.2357 60.3161 40.2357 60.347 40.2357H67.1262C67.2652 40.2514 67.3887 40.1569 67.4042 40.0308C67.4042 39.9993 67.4042 39.9835 67.4042 39.952V23.7033C67.4042 23.1517 67.3887 22.6001 67.3424 22.0643C67.2189 20.3307 66.8019 18.6286 66.0761 17.0368C64.501 13.6957 61.5206 11.5208 57.0423 11.5208C54.2472 11.5681 51.6374 12.9235 49.9697 15.2087L49.7998 15.4135V2.28539C49.8152 2.14355 49.7226 2.01747 49.599 2.00171C49.5681 2.00171 49.5527 2.00171 49.5218 2.00171H43.175C43.036 1.98595 42.9125 2.08051 42.897 2.22235C42.8816 2.23811 42.8816 2.25387 42.8816 2.28539Z" fill="#6A983C"/>
</svg>
